<svg width="15" height="15" viewBox="0 0 15 15" fill="none" xmlns="http://www.w3.org/2000/svg">
<g clip-path="url(#clip0_9454_212)">
<path d="M12.9189 4.74308C12.5286 4.74308 12.2092 4.4237 12.2092 4.03334C12.2092 3.64298 12.5286 3.3236 12.9189 3.3236V2.61385H1.56304V3.3236C1.9534 3.3236 2.27279 3.64298 2.27279 4.03334C2.27279 4.4237 1.9534 4.74308 1.56304 4.74308H0.143555V9.71129H1.56304C1.9534 9.71129 2.27279 10.0307 2.27279 10.421C2.27279 10.8114 1.9534 11.1308 1.56304 11.1308V11.8405H12.9189V11.1308C12.5286 11.1308 12.2092 10.8114 12.2092 10.421C12.2092 10.0307 12.5286 9.71129 12.9189 9.71129H14.3384V4.74308H12.9189ZM12.9189 7.58206H12.2092V8.2918H10.7897V7.58206H8.24173C8.09268 7.99371 7.70232 8.2918 7.24099 8.2918C6.77966 8.2918 6.3893 7.99371 6.24025 7.58206H3.69227V8.2918H2.27279V7.58206H1.56304V6.87231H2.27279V6.16257H3.69227V6.87231H6.24025C6.3893 6.46066 6.77966 6.16257 7.24099 6.16257C7.70232 6.16257 8.09268 6.46066 8.24173 6.87231H10.7897V6.16257H12.2092V6.87231H12.9189V7.58206Z" fill="white"/>
</g>
<defs>
<clipPath id="clip0_9454_212">
<rect width="14.1949" height="14.1949" fill="white" transform="translate(0.143555 0.484665)"/>
</clipPath>
</defs>
</svg>
