<svg width="15" height="5" viewBox="0 0 15 5" fill="none" xmlns="http://www.w3.org/2000/svg">
<path d="M12.9454 1.93692C11.655 1.93692 11.0098 0.00125122 9.07412 0.00125122C7.13845 0.00125122 7.13845 1.29169 7.13845 1.29169C7.13845 1.29169 7.13845 0.00125122 5.20279 0.00125122C3.26712 0.00125122 2.6219 1.93692 1.33146 1.93692C0.686237 1.93692 0.0410156 1.29169 0.0410156 1.29169C0.0410156 1.29169 0.686237 4.5178 3.26712 4.5178C6.49323 4.5178 7.13845 2.58214 7.13845 2.58214C7.13845 2.58214 7.78367 4.5178 11.0098 4.5178C13.5907 4.5178 14.2359 1.29169 14.2359 1.29169C14.2359 1.29169 13.5907 1.93692 12.9454 1.93692Z" fill="white"/>
</svg>
