<svg width="16" height="15" viewBox="0 0 16 15" fill="none" xmlns="http://www.w3.org/2000/svg">
<g clip-path="url(#clip0_9454_202)">
<path fill-rule="evenodd" clip-rule="evenodd" d="M1.31 2.64541C0.968725 3.23481 0.857417 3.92957 0.997479 4.59607C1.13754 5.26258 1.51908 5.85378 2.06872 6.25595C2.61836 6.65813 3.29729 6.84289 3.97494 6.7747C4.65258 6.70651 5.28109 6.39019 5.73958 5.88657L6.43592 6.28876C6.45564 6.36131 6.55185 6.38024 6.60153 6.32267C6.72035 6.18335 6.85178 6.05612 6.99583 5.94099C7.22137 5.75961 7.23241 5.38187 6.98164 5.23755L6.33104 4.86139C6.5345 4.21349 6.49204 3.51334 6.21178 2.89478C5.93152 2.27622 5.43312 1.78264 4.81187 1.50841C4.19061 1.23418 3.49007 1.19854 2.84419 1.4083C2.1983 1.61805 1.65238 2.05849 1.31078 2.64541M2.91165 5.39133C2.73083 5.28852 2.57213 5.15097 2.44469 4.98658C2.31725 4.82219 2.22358 4.63422 2.16909 4.43348C2.11459 4.23274 2.10033 4.02321 2.12714 3.81694C2.15395 3.61068 2.2213 3.41175 2.3253 3.23162C2.42931 3.05148 2.56791 2.8937 2.73314 2.76735C2.89837 2.641 3.08696 2.54859 3.28806 2.49542C3.48915 2.44225 3.69877 2.42939 3.90486 2.45757C4.11094 2.48575 4.30942 2.55441 4.48886 2.65961C4.84816 2.87024 5.10956 3.21445 5.21601 3.6171C5.32247 4.01975 5.26534 4.44817 5.05709 4.80886C4.84884 5.16955 4.50638 5.43322 4.10444 5.54235C3.7025 5.65147 3.27371 5.59718 2.91165 5.39133ZM8.00288 6.25091C7.6985 6.37922 7.42745 6.57536 7.21042 6.82438C6.99339 7.07339 6.8361 7.36869 6.75058 7.68774L6.43671 8.85961L5.73958 9.2618C5.28025 8.76106 4.65238 8.44729 3.97616 8.38056C3.29993 8.31383 2.62285 8.49882 2.0745 8.90013C1.52615 9.30143 1.14505 9.89086 1.00414 10.5556C0.86323 11.2203 0.972411 11.9137 1.31078 12.503C1.65092 13.0926 2.19695 13.5357 2.84395 13.7473C3.49095 13.9588 4.1933 13.9237 4.81605 13.6489C5.4388 13.3741 5.93802 12.8788 6.2178 12.2582C6.49759 11.6377 6.5382 10.9356 6.33183 10.287L14.7541 5.42445C14.8552 5.3658 14.9366 5.27854 14.9881 5.17367C15.0396 5.0688 15.0589 4.95102 15.0435 4.8352C15.0282 4.71937 14.9789 4.61069 14.9018 4.52286C14.8248 4.43504 14.7234 4.372 14.6106 4.3417L14.0562 4.19265C13.5905 4.06808 13.0966 4.10221 12.6525 4.28965L8.00288 6.25091ZM2.33439 11.9115C2.2292 11.7321 2.16053 11.5336 2.13236 11.3275C2.10418 11.1214 2.11704 10.9118 2.17021 10.7107C2.22337 10.5096 2.31579 10.321 2.44214 10.1558C2.56849 9.99056 2.72627 9.85195 2.9064 9.74795C3.08654 9.64395 3.28546 9.5766 3.49173 9.54979C3.698 9.52298 3.90753 9.53724 4.10827 9.59173C4.309 9.64623 4.49698 9.7399 4.66136 9.86734C4.82575 9.99478 4.96331 10.1535 5.06612 10.3343C5.27197 10.6964 5.32626 11.1251 5.21713 11.5271C5.10801 11.929 4.84433 12.2715 4.48365 12.4797C4.12296 12.688 3.69454 12.7451 3.29189 12.6387C2.88923 12.5322 2.54503 12.2708 2.33439 11.9115Z" fill="white"/>
<path d="M10.0249 9.06472C9.96131 9.10141 9.90922 9.15513 9.8745 9.21983C9.83978 9.28453 9.82382 9.35764 9.82841 9.43092C9.833 9.5042 9.85796 9.57475 9.90048 9.63461C9.943 9.69447 10.0014 9.74127 10.0691 9.76973L12.651 10.8588C13.0951 11.0462 13.589 11.0804 14.0547 10.9558L14.6099 10.8067C14.7226 10.7762 14.8238 10.7131 14.9007 10.6251C14.9775 10.5372 15.0267 10.4285 15.0418 10.3127C15.057 10.1969 15.0376 10.0792 14.986 9.97443C14.9343 9.86966 14.8529 9.78252 14.7518 9.72399L12.0153 8.14363C11.9554 8.10902 11.8874 8.09081 11.8182 8.09081C11.749 8.09081 11.681 8.10902 11.621 8.14363L10.0249 9.06472Z" fill="white"/>
</g>
<defs>
<clipPath id="clip0_9454_202">
<rect width="14.1949" height="14.1949" fill="white" transform="translate(0.938354 0.48465)"/>
</clipPath>
</defs>
</svg>
